<svg id="Layer_1" data-name="Layer 1" xmlns="http://www.w3.org/2000/svg" viewBox="0 0 170.81 18.53"><defs><style>.cls-1{fill:#fff;}</style></defs><path class="cls-1" d="M3.71,18.53Q0,18.53,0,14.77v-11Q0,0,3.71,0H14.5L15,2.49c-.36,0-.81-.07-1.34-.09l-1.53,0H6.5a1.18,1.18,0,0,0-.82.23,1.24,1.24,0,0,0-.23.87V15.05a1.28,1.28,0,0,0,.22.89,1.2,1.2,0,0,0,.83.21h5.59a14.33,14.33,0,0,0,1.55-.07A4.31,4.31,0,0,0,15,15.72l-.46,2.81Z"/><path class="cls-1" d="M20.36,18.53c-2.48,0-3.71-1.25-3.71-3.76v-11C16.65,1.25,17.88,0,20.36,0h11Q35,0,35,3.76v11q0,3.77-3.71,3.76Zm8.18-2.38a1.12,1.12,0,0,0,.81-.23,1.24,1.24,0,0,0,.23-.87V3.48a1.28,1.28,0,0,0-.22-.89,1.19,1.19,0,0,0-.82-.21h-5.4a1.14,1.14,0,0,0-.81.23,1.19,1.19,0,0,0-.23.87V15.05a1.34,1.34,0,0,0,.21.89,1.24,1.24,0,0,0,.83.21Z"/><path class="cls-1" d="M37.58,2.49a10,10,0,0,0-.07-1.29A7.52,7.52,0,0,0,37.24,0h15Q56,0,56,3.76v11q0,3.77-3.71,3.76h-15a7.45,7.45,0,0,0,.27-1.17A9.9,9.9,0,0,0,37.58,16ZM43,16.15h6.43a1.13,1.13,0,0,0,.82-.23,1.24,1.24,0,0,0,.23-.87V3.48a1.33,1.33,0,0,0-.22-.89,1.22,1.22,0,0,0-.83-.21H43Z"/><path class="cls-1" d="M58.06,18.53a7.45,7.45,0,0,0,.27-1.17A9.9,9.9,0,0,0,58.4,16V2.49a10,10,0,0,0-.07-1.29A7.52,7.52,0,0,0,58.06,0H73.28l.47,2.49q-.56-.06-1.35-.09l-1.53,0h-7V8H70a14.46,14.46,0,0,0,1.55-.07,4.47,4.47,0,0,0,1.32-.36v3.25a5.11,5.11,0,0,0-1.35-.34,13.67,13.67,0,0,0-1.52-.1H63.86v5.8h7a14.65,14.65,0,0,0,1.56-.07,4.47,4.47,0,0,0,1.32-.36l-.47,2.81Z"/><path class="cls-1" d="M79.63,18.53,75.4,3.45c-.27-1-.5-1.78-.68-2.25A5.6,5.6,0,0,0,74.09,0h6.82a4.16,4.16,0,0,0-.26,1.42,5,5,0,0,0,.06.94c0,.18.12.54.26,1.08l3,11.09L87.78,0h4.29l3.87,14.56L98.81,3.48c.1-.42.18-.81.24-1.16a5.33,5.33,0,0,0,.1-1A3.3,3.3,0,0,0,99,0h3.77a5.75,5.75,0,0,0-.87,1.52,15.82,15.82,0,0,0-.58,1.9l-4,15.11H91.78L88.47,6.43l-3.21,12.1Z"/><path class="cls-1" d="M107.24,13.25,106.06,16a6.13,6.13,0,0,0-.37,1.19,6.23,6.23,0,0,0-.13,1.3H102A16.45,16.45,0,0,0,103,17a19.28,19.28,0,0,0,1-2l6.18-13.77L109.36,0h6.06l6.84,15c.43.92.79,1.68,1.09,2.26a4.31,4.31,0,0,0,.88,1.24h-6.84a1.71,1.71,0,0,0,.06-.43,3.91,3.91,0,0,0-.18-1.06,10.43,10.43,0,0,0-.6-1.58l-1-2.21Zm7.37-2.37-3.17-7-3.1,7Z"/><path class="cls-1" d="M130.76,16a10,10,0,0,0,.07,1.29,6.64,6.64,0,0,0,.28,1.2H125a6.48,6.48,0,0,0,.27-1.17,9.72,9.72,0,0,0,.08-1.32V2.49a9.91,9.91,0,0,0-.08-1.29A6.57,6.57,0,0,0,125,0h14.7a3.84,3.84,0,0,1,2.73.9,3.51,3.51,0,0,1,1,2.69V7.35a3.21,3.21,0,0,1-.64,2.1,3.41,3.41,0,0,1-2.24,1l2.41,6.11a5.14,5.14,0,0,0,1.34,2H138l-3.19-8.18h-4.06Zm0-8.07h6.35a.9.9,0,0,0,.74-.27,1.62,1.62,0,0,0,.22-1V3.62c0-.83-.32-1.24-1-1.24h-6.35Z"/><path class="cls-1" d="M145.61,18.53a7.45,7.45,0,0,0,.27-1.17A9.9,9.9,0,0,0,146,16V2.49a10,10,0,0,0-.07-1.29,7.52,7.52,0,0,0-.27-1.2h15.22l.47,2.49q-.56-.06-1.35-.09l-1.53,0h-7V8h6.12a14.58,14.58,0,0,0,1.55-.07,4.47,4.47,0,0,0,1.32-.36v3.25a5.11,5.11,0,0,0-1.35-.34,13.67,13.67,0,0,0-1.52-.1h-6.12v5.8h7a14.65,14.65,0,0,0,1.56-.07,4.47,4.47,0,0,0,1.32-.36l-.47,2.81Z"/><path class="cls-1" d="M162.69,4.07A3.91,3.91,0,0,1,162.84,3a3.77,3.77,0,0,1,.41-1,3.81,3.81,0,0,1,.63-.82,4.21,4.21,0,0,1,.82-.64,4.63,4.63,0,0,1,1-.41A4.26,4.26,0,0,1,166.75,0a4.32,4.32,0,0,1,1.08.14,4.42,4.42,0,0,1,1,.41A4.25,4.25,0,0,1,170.26,2a4.63,4.63,0,0,1,.41,1,4.24,4.24,0,0,1,0,2.16,4.63,4.63,0,0,1-.41,1,4.53,4.53,0,0,1-.64.82,4.58,4.58,0,0,1-.82.63,4,4,0,0,1-1,.41,3.91,3.91,0,0,1-1.08.15A3.86,3.86,0,0,1,165.67,8a4.16,4.16,0,0,1-1-.41,4.58,4.58,0,0,1-.82-.63,4.08,4.08,0,0,1-.63-.82,3.63,3.63,0,0,1-.41-1A3.81,3.81,0,0,1,162.69,4.07Zm.74,0a3.52,3.52,0,0,0,.26,1.34,3.41,3.41,0,0,0,.7,1.08,3.3,3.3,0,0,0,2.36,1,3.35,3.35,0,0,0,2.37-1,3.43,3.43,0,0,0,.71-1.08A3.58,3.58,0,0,0,170,3.15a3.91,3.91,0,0,0-.33-.82,3.9,3.9,0,0,0-.52-.69,3.12,3.12,0,0,0-.68-.53,3.12,3.12,0,0,0-.79-.35,3.43,3.43,0,0,0-1.8,0,3.28,3.28,0,0,0-.79.35,2.85,2.85,0,0,0-.67.53,3.42,3.42,0,0,0-.51.69,3.07,3.07,0,0,0-.33.82A3.52,3.52,0,0,0,163.43,4.07Zm2.7.67V6.53H165V1.59h1.76a2.45,2.45,0,0,1,1.51.37A1.26,1.26,0,0,1,168.71,3a1.45,1.45,0,0,1-.26.85,1.47,1.47,0,0,1-.78.54.72.72,0,0,1,.21.18,1.81,1.81,0,0,1,.16.25l1,1.69H167.9a.36.36,0,0,1-.34-.19l-.79-1.44a.49.49,0,0,0-.13-.12.35.35,0,0,0-.2,0Zm0-.84h.49a1.89,1.89,0,0,0,.46,0,.66.66,0,0,0,.29-.14.49.49,0,0,0,.14-.23,1.46,1.46,0,0,0,0-.31.87.87,0,0,0,0-.3.43.43,0,0,0-.12-.22.59.59,0,0,0-.25-.13,2.3,2.3,0,0,0-.42,0h-.59Z"/></svg>