<?xml version="1.0" encoding="UTF-8"?>
<svg id="logosandtypes_com" data-name="logosandtypes com" xmlns="http://www.w3.org/2000/svg" viewBox="0 0 150 150">
  <defs>
    <style>
      .cls-1 {
        fill: #6d1e00;
      }

      .cls-2 {
        fill: #822800;
      }

      .cls-3 {
        fill: #d0631d;
      }

      .cls-4 {
        fill: #a53b00;
      }

      .cls-5 {
        fill: #a04f1b;
      }

      .cls-6 {
        fill: #8f3a07;
      }

      .cls-7 {
        fill: none;
      }

      .cls-8 {
        fill: #b94b06;
      }

      .cls-9 {
        fill: #a45621;
      }

      .cls-10 {
        fill: #c75913;
      }
    </style>
  </defs>
  <path class="cls-7" d="M0,0H150V150H0V0Z"/>
  <polygon class="cls-8" points="41.97 15.73 117.1 15.73 94.01 47.98 94.01 105.52 117.1 105.52 117.1 138.5 35.38 138.5 35.38 105.52 59.2 105.52 59.2 47.98 41.97 15.73"/>
  <polygon class="cls-5" points="60.66 15.73 94.01 47.98 94.01 15.73 60.66 15.73"/>
  <polygon class="cls-2" points="59.2 47.98 59.2 15.73 60.66 15.73 94.01 47.98 59.2 47.98"/>
  <rect class="cls-4" x="59.2" y="47.98" width="34.82" height="57.54"/>
  <polygon class="cls-10" points="109.77 138.5 117.1 105.52 117.1 138.5 109.77 138.5"/>
  <polygon class="cls-6" points="94.01 105.52 117.1 105.52 109.77 138.5 58.83 138.5 94.01 105.52"/>
  <polygon class="cls-1" points="58.83 138.5 59.2 105.52 94.01 105.52 58.83 138.5"/>
  <polygon class="cls-3" points="35.01 47.98 59.2 47.98 59.2 15.73 41.97 15.73 35.01 47.98"/>
  <rect class="cls-9" x="94.01" y="15.73" width="23.09" height="32.25"/>
</svg>