<?xml version="1.0" encoding="UTF-8" standalone="no"?>
<!DOCTYPE svg PUBLIC "-//W3C//DTD SVG 1.1//EN" "http://www.w3.org/Graphics/SVG/1.1/DTD/svg11.dtd">
<svg width="100%" height="100%" viewBox="0 0 332 211" version="1.1" xmlns="http://www.w3.org/2000/svg" xmlns:xlink="http://www.w3.org/1999/xlink" xml:space="preserve" xmlns:serif="http://www.serif.com/" style="fill-rule:evenodd;clip-rule:evenodd;stroke-linejoin:round;stroke-miterlimit:2;">
    <g transform="matrix(1,0,0,1,-34.1908,-94.8374)">
        <path d="M52.614,296.509L44.619,284.045L38.363,284.045L38.363,296.509L34.459,296.509L34.459,265.136L47.064,265.136C52.801,265.136 56.895,268.805 56.895,274.592C56.895,280.235 53.037,283.339 48.758,283.716L57.224,296.509L52.614,296.509ZM46.593,268.617L38.363,268.617L38.363,280.612L46.593,280.612C50.31,280.612 52.849,278.118 52.849,274.592C52.849,271.063 50.31,268.617 46.593,268.617Z" style="fill:white;fill-rule:nonzero;"/>
        <path d="M72.474,273.227C79.34,273.227 83.386,278.589 83.386,285.41L83.386,286.303L64.995,286.303C65.277,290.582 68.287,294.157 73.178,294.157C75.766,294.157 78.399,293.122 80.186,291.288L81.88,293.593C79.622,295.851 76.566,297.074 72.849,297.074C66.123,297.074 61.279,292.228 61.279,285.126C61.279,278.541 65.983,273.227 72.474,273.227L72.474,273.227ZM64.995,283.716L79.905,283.716C79.857,280.329 77.601,276.144 72.426,276.144C67.581,276.144 65.183,280.235 64.995,283.716L64.995,283.716Z" style="fill:white;fill-rule:nonzero;"/>
        <path d="M89.186,290.959C90.692,292.699 93.561,294.205 96.665,294.205C100.146,294.205 102.027,292.653 102.027,290.441C102.027,287.949 99.252,287.149 96.196,286.397C92.338,285.503 87.963,284.468 87.963,279.764C87.963,276.237 91.021,273.227 96.43,273.227C100.288,273.227 103.015,274.685 104.85,276.519L103.204,278.964C101.84,277.319 99.346,276.096 96.43,276.096C93.326,276.096 91.398,277.506 91.398,279.529C91.398,281.739 93.984,282.445 96.948,283.151C100.898,284.045 105.46,285.174 105.46,290.207C105.46,294.015 102.404,297.074 96.525,297.074C92.809,297.074 89.657,295.944 87.353,293.499L89.186,290.959L89.186,290.959Z" style="fill:white;fill-rule:nonzero;"/>
        <path d="M121.263,273.227C128.13,273.227 132.175,278.589 132.175,285.41L132.175,286.303L113.785,286.303C114.066,290.582 117.076,294.157 121.968,294.157C124.555,294.157 127.188,293.122 128.976,291.288L130.669,293.593C128.411,295.851 125.355,297.074 121.639,297.074C114.912,297.074 110.068,292.228 110.068,285.126C110.068,278.541 114.772,273.227 121.263,273.227L121.263,273.227ZM113.785,283.716L128.694,283.716C128.646,280.329 126.39,276.144 121.216,276.144C116.37,276.144 113.972,280.235 113.785,283.716L113.785,283.716Z" style="fill:white;fill-rule:nonzero;"/>
        <path d="M152.278,296.509L152.278,293.922C150.397,295.992 147.81,297.073 144.754,297.073C140.896,297.073 136.804,294.486 136.804,289.547C136.804,284.468 140.896,282.07 144.754,282.07C147.858,282.07 150.445,283.058 152.278,285.174L152.278,281.081C152.278,278.025 149.833,276.283 146.541,276.283C143.812,276.283 141.602,277.273 139.579,279.435L137.934,276.989C140.379,274.45 143.296,273.227 147.01,273.227C151.808,273.227 155.807,275.39 155.807,280.893L155.807,296.509L152.278,296.509L152.278,296.509ZM152.278,287.43C150.914,285.549 148.516,284.61 146.023,284.61C142.731,284.61 140.427,286.678 140.427,289.595C140.427,292.463 142.731,294.534 146.023,294.534C148.516,294.534 150.914,293.593 152.278,291.711L152.278,287.43Z" style="fill:white;fill-rule:nonzero;"/>
        <path d="M163.142,296.509L163.142,273.792L166.669,273.792L166.669,277.46C168.505,275.06 171.138,273.321 174.242,273.321L174.242,276.943C173.819,276.848 173.396,276.802 172.831,276.802C170.667,276.802 167.705,278.589 166.669,280.423L166.669,296.509L163.142,296.509Z" style="fill:white;fill-rule:nonzero;"/>
        <path d="M188.575,273.227C192.715,273.227 195.16,274.921 196.902,277.177L194.55,279.341C193.044,277.273 191.115,276.379 188.765,276.379C183.919,276.379 180.909,280.093 180.909,285.126C180.909,290.159 183.919,293.922 188.765,293.922C191.115,293.922 193.044,292.982 194.55,290.959L196.902,293.122C195.16,295.38 192.715,297.074 188.575,297.074C181.803,297.074 177.241,291.899 177.241,285.126C177.241,278.4 181.803,273.227 188.575,273.227L188.575,273.227Z" style="fill:white;fill-rule:nonzero;"/>
        <path d="M217.443,296.509L217.443,281.552C217.443,277.554 215.375,276.379 212.316,276.379C209.589,276.379 206.954,278.071 205.59,279.906L205.59,296.509L202.063,296.509L202.063,265.136L205.59,265.136L205.59,277.083C207.19,275.202 210.294,273.227 213.727,273.227C218.479,273.227 220.972,275.531 220.972,280.47L220.972,296.509L217.443,296.509L217.443,296.509Z" style="fill:white;fill-rule:nonzero;"/>
        <path d="M256.291,264.619C261.841,264.619 265.697,267.065 268.472,270.498L265.368,272.427C263.393,269.888 260.053,268.1 256.291,268.1C249.423,268.1 244.202,273.369 244.202,280.845C244.202,288.278 249.423,293.64 256.291,293.64C260.053,293.64 263.157,291.805 264.709,290.253L264.709,283.856L253.939,283.856L253.939,280.377L268.613,280.377L268.613,291.711C265.697,294.957 261.418,297.121 256.291,297.121C247.354,297.121 240.157,290.582 240.157,280.845C240.157,271.111 247.354,264.619 256.291,264.619L256.291,264.619Z" style="fill:white;fill-rule:nonzero;"/>
        <path d="M275.661,296.509L275.661,273.792L279.188,273.792L279.188,277.46C281.023,275.06 283.657,273.321 286.761,273.321L286.761,276.943C286.338,276.848 285.915,276.802 285.35,276.802C283.186,276.802 280.224,278.589 279.188,280.423L279.188,296.509L275.661,296.509Z" style="fill:white;fill-rule:nonzero;"/>
        <path d="M289.782,285.126C289.782,278.541 294.111,273.227 301.025,273.227C307.939,273.227 312.266,278.541 312.266,285.126C312.266,291.711 307.939,297.073 301.025,297.073C294.111,297.073 289.782,291.711 289.782,285.126ZM308.55,285.126C308.55,280.516 305.869,276.379 301.025,276.379C296.18,276.379 293.453,280.516 293.453,285.126C293.453,289.782 296.18,293.922 301.025,293.922C305.869,293.922 308.55,289.782 308.55,285.126Z" style="fill:white;fill-rule:nonzero;"/>
        <path d="M333.617,296.509L333.617,293.311C331.876,295.286 328.913,297.073 325.526,297.073C320.776,297.073 318.283,294.769 318.283,289.83L318.283,273.792L321.81,273.792L321.81,288.749C321.81,292.747 323.833,293.922 326.891,293.922C329.665,293.922 332.299,292.324 333.617,290.489L333.617,273.792L337.144,273.792L337.144,296.509L333.617,296.509Z" style="fill:white;fill-rule:nonzero;"/>
        <path d="M348.029,305.163L344.502,305.163L344.502,273.792L348.029,273.792L348.029,277.177C349.677,274.873 352.498,273.227 355.697,273.227C361.67,273.227 365.809,277.741 365.809,285.126C365.809,292.463 361.67,297.073 355.697,297.073C352.593,297.073 349.864,295.615 348.029,293.076L348.029,305.163ZM354.804,276.379C352.029,276.379 349.254,278.025 348.029,280L348.029,290.253C349.254,292.228 352.029,293.922 354.804,293.922C359.366,293.922 362.093,290.159 362.093,285.126C362.093,280.093 359.366,276.379 354.804,276.379L354.804,276.379Z" style="fill:white;fill-rule:nonzero;"/>
        <path d="M34.422,193.04L34.422,96.43L84.938,96.43C109.075,96.43 122.525,110.334 122.525,126.702C122.525,143.07 108.903,156.975 84.938,156.975L54.595,156.975L54.595,193.04L34.422,193.04ZM82.18,111.349L54.595,111.349L54.595,142.056L82.18,142.056C93.559,142.056 101.836,135.972 101.836,126.702C101.836,117.432 93.559,111.349 82.18,111.349Z" style="fill:white;fill-rule:nonzero;"/>
        <path d="M212.075,193.04L186.558,156.975L166.558,156.975L166.558,193.04L146.386,193.04L146.386,96.43L196.902,96.43C219.661,96.43 234.488,108.888 234.488,126.702C234.488,143.939 221.039,153.209 207.247,155.092L235.35,193.04L212.075,193.04L212.075,193.04ZM194.144,111.349L166.558,111.349L166.558,142.056L194.144,142.056C205.523,142.056 213.8,135.972 213.8,126.702C213.8,117.432 205.523,111.349 194.144,111.349Z" style="fill:white;fill-rule:nonzero;"/>
        <path d="M316.557,94.837C338.97,94.837 353.625,103.816 362.935,114.969L346.383,122.792C340.35,115.549 329.487,109.9 316.557,109.9C293.799,109.9 276.901,124.53 276.901,144.807C276.901,165.085 293.799,179.858 316.557,179.858C328.28,179.858 338.625,175.224 343.798,171.168L343.798,156.106L309.488,156.106L309.488,141.187L363.97,141.187L363.97,177.397C352.589,187.971 336.557,194.923 316.557,194.923C283.282,194.923 256.213,175.08 256.213,144.807C256.213,114.535 283.282,94.837 316.557,94.837L316.557,94.837Z" style="fill:white;fill-rule:nonzero;"/>
        <path d="M34.191,254.125L34.191,203.626L60.605,203.626C73.226,203.626 80.259,210.895 80.259,219.449C80.259,228.005 73.136,235.273 60.605,235.273L44.739,235.273L44.739,254.125L34.191,254.125ZM59.162,211.425L44.739,211.425L44.739,227.475L59.162,227.475C65.114,227.475 69.441,224.294 69.441,219.449C69.441,214.603 65.114,211.425 59.162,211.425Z" style="fill:white;fill-rule:nonzero;"/>
        <path d="M133.766,254.125L129.349,244.434L100.86,244.434L96.443,254.125L84.903,254.125L108.524,203.626L121.684,203.626L145.305,254.125L133.766,254.125ZM115.105,211.122L103.836,236.636L126.373,236.636L115.105,211.122Z" style="fill:white;fill-rule:nonzero;"/>
        <path d="M156.358,203.626L166.997,203.626L166.997,233.91C166.997,241.935 172.315,247.159 182.413,247.159C192.42,247.159 197.738,241.935 197.738,233.91L197.738,203.626L208.376,203.626L208.376,234.136C208.376,246.705 199.812,255.034 182.413,255.034C164.922,255.034 156.358,246.629 156.358,234.213L156.358,203.626Z" style="fill:white;fill-rule:nonzero;"/>
        <path d="M228.715,254.125L228.715,203.626L239.263,203.626L239.263,246.326L265.768,246.326L265.768,254.125L228.715,254.125Z" style="fill:white;fill-rule:nonzero;"/>
        <rect x="280.97" y="203.626" width="10.548" height="50.498" style="fill:white;fill-rule:nonzero;"/>
        <path d="M353.808,254.125L322.436,217.33L322.436,254.125L311.887,254.125L311.887,203.626L322.705,203.626L353.447,239.437L353.447,203.626L363.995,203.626L363.995,254.125L353.808,254.125Z" style="fill:white;fill-rule:nonzero;"/>
    </g>
</svg>
